<svg width="350" height="263" viewBox="0 0 350 263" fill="none" xmlns="http://www.w3.org/2000/svg">
<g clip-path="url(#clip0_16:58)">
<path opacity="0.1" d="M294.59 51.4326C296.883 73.2152 314.751 91.4731 331.624 103.714C337.269 107.813 343.365 112.038 346.925 118.78C351.275 127.006 350.51 136.708 347.722 144.072C342.643 157.496 331.281 166.043 318.138 166.306C306.797 166.538 294.647 161.008 283.372 161.639C264.502 162.681 252.084 180.528 244.063 199.429C238.393 212.8 232.896 228.424 220.279 231.758C211.402 234.112 200.874 229.492 191.984 222.48C187.69 219.093 183.456 215.044 178.753 213.566C175.962 212.687 173.199 212.794 170.562 213.173C146.46 216.654 130.539 241.733 106.008 243.5C89.4406 244.705 71.2953 234.74 56.4136 220.587C41.532 206.435 29.4036 188.327 17.9052 170.17C9.73355 157.267 1.39805 143.127 0.160006 128.444C-1.16624 112.907 6.14544 99.8629 16.4687 93.394C26.792 86.9251 39.7804 86.175 52.6113 87.5686C68.6586 89.3043 85.7958 94.119 99.6631 87.9421C109.114 83.7362 115.915 74.8568 123.268 67.1167C135.554 54.179 149.853 44.0786 164.202 34.2387C177.937 24.8226 191.924 15.5195 207.675 10.3846C218.839 6.74051 230.703 7.97089 242.173 5.8554C249.652 4.4775 255.87 0.205718 263.727 0.0205346C273.405 -0.224285 285.347 3.92195 291.414 16.1535C297.192 27.7699 293.371 39.8727 294.59 51.4326Z" fill="#5260A6"/>
<path d="M248.893 4.27488L227.377 2.97545L214.927 2.09033V2.06836H214.773H214.6V2.09347L147.654 7.42928H142.104L141.451 30.4518L152.228 34.237L158.759 67.3505L129.043 126.004L111.086 139.563V152.491L121.863 162.899L122.515 210.52L125.782 211.148V210.642L127.424 210.956V211.144L191.2 232.513L193.881 234.324L199.488 230.843L244.662 204.839L248.893 4.27488ZM180.328 152.209L197.8 137.457L180.328 152.209ZM119.734 158.329L124.459 162.902V163.185L119.734 158.329Z" fill="url(#paint0_linear_16:58)"/>
<path d="M128.325 163.866L191.959 179.874L182.509 169.202L177.153 162.611L121.394 151.625L118.874 153.822L128.325 163.866Z" fill="#535461"/>
<path d="M118.874 153.822L181.563 168.26L181.878 153.194L163.922 146.289L128.01 140.326H117.614L118.874 153.822Z" fill="#D6D6E3"/>
<path d="M164.237 68.449L228.187 72.5293V60.6022L223.776 33.9231L221.571 32.0399L157.622 33.9231L164.237 68.449Z" fill="#D6D6E3"/>
<path d="M149.116 8.49963H145.966L145.336 31.4122L155.731 35.1787L162.032 68.1352L133.365 126.515L116.039 140.012V152.88L126.434 163.238L127.064 210.633L130.215 211.26L129.585 164.18L119.189 153.194L118.874 140.012L135.57 126.829L164.867 68.4491L158.567 35.1787L148.171 30.7845L149.116 8.49963Z" fill="#D6D6E3"/>
<path d="M146.596 8.49963H143.446L142.816 31.4122L153.211 35.1787L159.512 68.1352L130.845 126.515L113.519 140.012V152.88L123.914 163.238L124.544 210.633L127.695 211.26L127.065 164.18L116.669 153.194L116.354 140.012L133.68 126.829L162.347 68.4491L156.047 35.1787L145.651 30.7845L146.596 8.49963Z" fill="#535461"/>
<path d="M146.438 29.0582L148.014 31.2553L156.834 35.3357L226.769 33.4524L219.996 31.4123L212.751 28.2735L213.696 25.7626L146.438 29.0582Z" fill="#A8A8A8"/>
<path d="M134.625 127.771L198.575 138.129L211.491 110.822L229.132 71.5878L164.237 68.4491L134.625 127.771Z" fill="#5260A6"/>
<g opacity="0.1">
<path opacity="0.1" d="M167.702 79.7484L210.86 83.201L188.494 127.143L146.596 120.866L167.702 79.7484Z" fill="#F3F3F3"/>
</g>
<g opacity="0.1">
<path opacity="0.1" d="M170.679 82.9404L172.585 83.0942L171.599 85.0308L169.75 84.7546L170.679 82.9404Z" fill="#F3F3F3"/>
</g>
<g opacity="0.1">
<path opacity="0.1" d="M170.994 101.145L172.9 101.299L171.914 103.235L170.065 102.959L170.994 101.145Z" fill="#F3F3F3"/>
</g>
<g opacity="0.1">
<path opacity="0.1" d="M181.39 85.1376L183.296 85.2914L182.31 87.228L180.461 86.9518L181.39 85.1376Z" fill="#F3F3F3"/>
</g>
<g opacity="0.1">
<path opacity="0.1" d="M201.236 86.0792L203.142 86.233L202.156 88.1697L200.307 87.8934L201.236 86.0792Z" fill="#F3F3F3"/>
</g>
<g opacity="0.1">
<path opacity="0.1" d="M174.46 88.5902L176.365 88.744L175.379 90.6806L173.53 90.4044L174.46 88.5902Z" fill="#F3F3F3"/>
</g>
<g opacity="0.1">
<path opacity="0.1" d="M181.39 107.736L183.296 107.89L182.31 109.827L180.461 109.551L181.39 107.736Z" fill="#F3F3F3"/>
</g>
<g opacity="0.1">
<path opacity="0.1" d="M164.379 96.7509L166.285 96.9046L165.299 98.8412L163.45 98.565L164.379 96.7509Z" fill="#F3F3F3"/>
</g>
<g opacity="0.1">
<path opacity="0.1" d="M193.361 85.1376L195.267 85.2914L194.281 87.228L192.432 86.9518L193.361 85.1376Z" fill="#F3F3F3"/>
</g>
<g opacity="0.1">
<path opacity="0.1" d="M178.24 95.8092L180.146 95.963L179.16 97.8996L177.311 97.6234L178.24 95.8092Z" fill="#F3F3F3"/>
</g>
<g opacity="0.1">
<path opacity="0.1" d="M176.035 83.8821L177.941 84.0359L176.955 85.9724L175.105 85.6962L176.035 83.8821Z" fill="#F3F3F3"/>
</g>
<g opacity="0.1">
<path opacity="0.1" d="M185.8 94.8676L187.706 95.0214L186.72 96.958L184.871 96.6818L185.8 94.8676Z" fill="#F3F3F3"/>
</g>
<g opacity="0.1">
<path opacity="0.1" d="M188.005 85.1376L189.911 85.2914L188.925 87.228L187.076 86.9518L188.005 85.1376Z" fill="#F3F3F3"/>
</g>
<g opacity="0.1">
<path opacity="0.1" d="M168.159 89.5317L170.065 89.6855L169.079 91.6221L167.23 91.3459L168.159 89.5317Z" fill="#F3F3F3"/>
</g>
<path d="M117.614 140.326L179.988 152.881L197.17 137.903L134.783 127.3L117.614 140.326Z" fill="#D6D6E3"/>
<path d="M129.27 162.297V211.26L191.014 232.604L191.959 181.757L189.439 177.026L178.098 174.224L129.27 162.297Z" fill="#535461"/>
<path d="M137.303 133.421C138.782 133.421 139.98 132.718 139.98 131.851C139.98 130.984 138.782 130.282 137.303 130.282C135.824 130.282 134.625 130.984 134.625 131.851C134.625 132.718 135.824 133.421 137.303 133.421Z" fill="#575988"/>
<path d="M139.508 136.873C140.987 136.873 142.185 136.17 142.185 135.304C142.185 134.437 140.987 133.734 139.508 133.734C138.029 133.734 136.83 134.437 136.83 135.304C136.83 136.17 138.029 136.873 139.508 136.873Z" fill="#FA595F"/>
<path d="M131.947 135.931C133.426 135.931 134.625 135.229 134.625 134.362C134.625 133.495 133.426 132.793 131.947 132.793C130.468 132.793 129.27 133.495 129.27 134.362C129.27 135.229 130.468 135.931 131.947 135.931Z" fill="#FFD037"/>
<path d="M165.97 139.07C167.449 139.07 168.647 138.367 168.647 137.501C168.647 136.634 167.449 135.931 165.97 135.931C164.491 135.931 163.292 136.634 163.292 137.501C163.292 138.367 164.491 139.07 165.97 139.07Z" fill="#575988"/>
<path d="M160.614 141.895C162.093 141.895 163.292 141.192 163.292 140.326C163.292 139.459 162.093 138.756 160.614 138.756C159.135 138.756 157.937 139.459 157.937 140.326C157.937 141.192 159.135 141.895 160.614 141.895Z" fill="#FFD037"/>
<path d="M150.533 137.501C152.708 137.501 154.471 136.658 154.471 135.617C154.471 134.577 152.708 133.734 150.533 133.734C148.359 133.734 146.596 134.577 146.596 135.617C146.596 136.658 148.359 137.501 150.533 137.501Z" fill="#A8A8A8"/>
<path d="M168.805 142.523C170.284 142.523 171.483 141.82 171.483 140.953C171.483 140.087 170.284 139.384 168.805 139.384C167.326 139.384 166.127 140.087 166.127 140.953C166.127 141.82 167.326 142.523 168.805 142.523Z" fill="#FA595F"/>
<path d="M151.637 135.307H149.746L148.121 129.054C148.053 128.791 148.046 128.516 148.101 128.25C148.156 127.984 148.271 127.734 148.438 127.519C148.605 127.304 148.819 127.13 149.064 127.011C149.309 126.891 149.578 126.829 149.85 126.829C150.324 126.829 150.778 127.017 151.113 127.35C151.448 127.684 151.637 128.137 151.637 128.609V135.307Z" fill="#A8A8A8"/>
<path d="M178.886 142.523C181.06 142.523 182.823 141.68 182.823 140.64C182.823 139.599 181.06 138.756 178.886 138.756C176.711 138.756 174.948 139.599 174.948 140.64C174.948 141.68 176.711 142.523 178.886 142.523Z" fill="#A8A8A8"/>
<path d="M179.989 140.329H178.098L176.473 134.076C176.405 133.813 176.398 133.538 176.453 133.272C176.508 133.006 176.623 132.756 176.79 132.541C176.957 132.326 177.171 132.152 177.416 132.033C177.661 131.913 177.93 131.851 178.202 131.851C178.676 131.851 179.13 132.039 179.465 132.372C179.8 132.706 179.989 133.159 179.989 133.631V140.329Z" fill="#A8A8A8"/>
<path d="M148.801 8.49963L213.696 3.16382L212.121 26.7042L147.226 29.8429L148.801 8.49963Z" fill="#535461"/>
<path d="M213.381 3.16382L243.308 5.36092L239.213 204.983L193.377 234.33L190.227 232.133L190.069 179.873L179.988 168.574V152.88L197.63 137.501L227.557 71.2739L223.304 33.4524H225.509L211.491 28.5874L213.381 3.16382Z" fill="#D6D6E3"/>
<path d="M216.216 3.47766L246.458 5.36089L242.363 204.983L193.219 234.173V179.873L183.139 168.574V152.88L200.78 137.501L230.707 71.2739L225.352 33.2954L214.641 28.5874L216.216 3.47766Z" fill="#535461"/>
<path d="M163.012 124.412C158.602 133.515 147.746 131.154 147.746 131.154C147.185 130.636 143.676 129.77 141.014 129.171C139.306 128.785 137.949 128.515 137.949 128.515L141.675 123.339L144.47 123.91L148.637 124.764C148.637 124.764 167.438 115.313 163.012 124.412Z" fill="url(#paint1_linear_16:58)"/>
<g opacity="0.08">
<path opacity="0.08" d="M163.012 124.412C158.602 133.515 147.746 131.154 147.746 131.154C147.185 130.636 143.676 129.77 141.014 129.171C139.306 128.785 137.949 128.515 137.949 128.515L141.675 123.339L144.47 123.91L148.637 124.764C148.637 124.764 167.438 115.313 163.012 124.412Z" fill="url(#paint2_linear_16:58)"/>
</g>
<g opacity="0.1">
<path opacity="0.1" d="M144.473 123.91L141.008 129.174C139.3 128.788 137.942 128.518 137.942 128.518L141.669 123.342L144.473 123.91Z" fill="url(#paint3_linear_16:58)"/>
</g>
<path d="M105.731 105.097C105.731 105.097 121.977 130.392 139.372 130.332L144.098 123.113C144.098 123.113 128.177 111.782 126.06 105.875C125.278 103.678 123.665 100.668 121.945 97.7144C116.662 88.6655 102.414 94.5757 105.545 104.519C105.606 104.716 105.668 104.908 105.731 105.097Z" fill="url(#paint4_linear_16:58)"/>
<g opacity="0.05">
<path opacity="0.05" d="M105.731 105.097C105.731 105.097 121.977 130.392 139.372 130.332L144.098 123.113C144.098 123.113 128.177 111.782 126.06 105.875C125.278 103.678 123.665 100.668 121.945 97.7144C116.662 88.6655 102.414 94.5757 105.545 104.519C105.606 104.716 105.668 104.908 105.731 105.097Z" fill="url(#paint5_linear_16:58)"/>
</g>
<path d="M95.1558 252.123L95.9181 260.912C95.9181 260.912 120.871 256.781 120.654 248.523C120.436 240.265 95.1558 252.123 95.1558 252.123Z" fill="url(#paint6_linear_16:58)"/>
<g opacity="0.1">
<path opacity="0.1" d="M95.1558 252.123L95.9181 260.912C95.9181 260.912 120.871 256.781 120.654 248.523C120.436 240.265 95.1558 252.123 95.1558 252.123Z" fill="url(#paint7_linear_16:58)"/>
</g>
<path d="M124.359 254.876L123.924 262.5C123.924 262.5 158.576 259.958 157.266 252.77C155.955 245.582 137.653 249.581 137.653 249.581L124.359 254.876Z" fill="url(#paint8_linear_16:58)"/>
<path d="M124.793 180.332C124.793 180.332 122.745 185.981 120.131 192.453C117.629 198.649 114.611 205.614 112.372 209.132C107.794 216.333 107.142 238.57 107.142 238.57C106.27 242.171 110.63 249.16 110.63 249.16C101.913 258.263 93.8483 252.974 93.8483 252.974C95.373 250.221 92.7583 242.384 92.7583 242.384C92.7583 242.384 96.2456 206.169 98.4287 204.475C100.612 202.78 102.351 194.308 102.351 194.308L100.401 165.52L99.9534 158.929L118.694 150.671L120.046 157.237L121.384 163.737L124.793 180.332Z" fill="url(#paint9_linear_16:58)"/>
<g opacity="0.1">
<path opacity="0.1" d="M124.793 180.332C124.793 180.332 122.745 185.981 120.131 192.453C117.629 198.649 114.611 205.614 112.372 209.132C107.794 216.333 107.142 238.57 107.142 238.57C106.27 242.171 110.63 249.16 110.63 249.16C101.913 258.263 93.8483 252.974 93.8483 252.974C95.373 250.221 92.7583 242.384 92.7583 242.384C92.7583 242.384 96.2456 206.169 98.4287 204.475C100.612 202.78 102.351 194.308 102.351 194.308L100.401 165.52L99.9534 158.929L118.694 150.671L120.046 157.237L121.384 163.737L124.793 180.332Z" fill="url(#paint10_linear_16:58)"/>
</g>
<path d="M141.136 250.432C137.214 257.208 123.495 256.361 123.495 256.361V236.452C123.495 236.452 119.573 214.214 121.753 209.145C123.933 204.076 120.88 194.745 120.88 194.745L120.131 192.457L111.244 165.15L108.667 157.234H138.087C138.087 157.234 138.087 158.59 138.087 160.793C138.125 169.268 138.301 190.269 139.168 195.143C140.258 201.286 137.205 205.31 137.205 205.31C137.205 205.31 138.947 230.3 137.422 238.134C135.898 245.969 141.136 250.432 141.136 250.432Z" fill="url(#paint11_linear_16:58)"/>
<path d="M116.949 64.2745C116.949 64.2745 112.372 76.5563 103.22 81.0039C94.0689 85.4515 118.256 86.7226 118.256 86.7226C118.256 86.7226 122.178 77.4038 131.112 70.8376L116.949 64.2745Z" fill="url(#paint12_linear_16:58)"/>
<g opacity="0.1">
<path opacity="0.1" d="M138.097 160.806C134.449 161.506 127.994 162.705 121.382 163.747C117.916 164.293 114.413 164.795 111.244 165.159C106.368 165.721 102.288 165.956 100.398 165.517L99.9507 158.926L118.691 150.668L120.043 157.234H138.087C138.087 157.234 138.087 158.602 138.097 160.806Z" fill="url(#paint13_linear_16:58)"/>
</g>
<path d="M141.137 159.575C141.137 159.575 104.307 166.989 99.7333 164.66C95.1591 162.331 94.0629 156.402 95.3734 149.836C96.6839 143.27 95.3734 126.964 92.976 106.208C91.7695 95.7559 94.4283 88.7409 97.3706 84.3529C98.662 82.4615 100.401 80.9158 102.434 79.8523C104.466 78.7887 106.731 78.24 109.026 78.2544C113.01 78.2382 116.882 79.5657 120.011 82.0209C120.931 82.7522 121.861 83.3517 122.62 83.5557C123.218 83.7158 124.119 84.3498 125.14 85.213C129.685 89.1129 132.538 94.6146 133.101 100.564C133.479 104.51 133.879 109.478 134.074 114.5C134.275 118.789 134.23 123.085 133.942 127.369C133.739 130.505 133.889 133.654 134.389 136.757C136.087 148.201 141.137 159.575 141.137 159.575Z" fill="url(#paint14_linear_16:58)"/>
<g opacity="0.1">
<path opacity="0.1" d="M134.392 136.773C121.025 128.668 114.114 105.994 114.114 105.994C114.114 105.797 114.114 105.602 114.092 105.41C113.792 95.0119 129.159 93.0094 131.768 103.1C132.615 106.387 133.343 109.72 133.494 112.024C133.576 112.871 133.772 113.704 134.077 114.5C134.277 118.789 134.233 123.085 133.944 127.369C133.741 130.51 133.891 133.664 134.392 136.773Z" fill="url(#paint15_linear_16:58)"/>
</g>
<g opacity="0.1">
<path opacity="0.1" d="M114.659 71.5815C116.832 75.1628 118.552 78.7692 122.966 79.3812C125.133 76.6418 127.651 74.1978 130.457 72.112L116.281 65.5458C116.281 65.5458 117.113 67.7868 114.659 71.5815Z" fill="url(#paint16_linear_16:58)"/>
</g>
<path d="M125.666 78.2481C133.61 78.2481 140.05 71.9906 140.05 64.2715C140.05 56.5524 133.61 50.2948 125.666 50.2948C117.722 50.2948 111.282 56.5524 111.282 64.2715C111.282 71.9906 117.722 78.2481 125.666 78.2481Z" fill="url(#paint17_linear_16:58)"/>
<g opacity="0.1">
<path opacity="0.1" d="M139.883 68.6562C140.478 68.6816 141.067 68.5261 141.571 68.2105C142.261 67.7115 142.482 66.8169 142.639 65.9946C143.014 64.0517 143.307 62.0053 142.639 60.1346C142.207 58.898 141.379 57.8277 140.799 56.6538C139.508 54.0895 139.278 51.0041 137.435 48.7788C136.285 47.3852 132.243 48.7788 130.555 48.0757C126.926 46.5565 125.351 43.4743 121.397 43.4775C119.948 43.4423 118.502 43.6221 117.106 44.011C115.339 44.554 113.777 45.5804 112.324 46.7072C109.804 48.6595 107.334 51.3399 107.558 54.4724C107.703 56.4717 108.928 58.2388 109.65 60.1032C110.86 63.2419 110.639 66.7699 109.766 70.0216C109.395 71.4057 108.969 73.0598 109.955 74.1176C110.585 74.7799 111.584 74.9682 112.476 74.8238C113.365 74.6275 114.216 74.2882 114.996 73.8194C116.413 73.0693 117.85 72.3065 118.997 71.2049C119.756 70.4767 120.367 69.6167 121.088 68.854C122.501 67.3955 124.1 66.1291 125.845 65.0875C127.241 64.2526 128.68 64.7736 130.145 65.3166C133.365 66.4936 136.342 68.719 139.883 68.6562Z" fill="url(#paint18_linear_16:58)"/>
</g>
<path d="M139.665 68.4428C140.26 68.4682 140.849 68.3127 141.354 67.9971C142.044 67.4981 142.264 66.6035 142.422 65.7812C142.797 63.8383 143.09 61.7919 142.422 59.9212C141.99 58.6846 141.162 57.6143 140.582 56.4404C139.29 53.8761 139.06 50.7907 137.218 48.5654C136.068 47.1718 132.243 48.7788 130.555 48.0726C126.926 46.5535 125.133 43.2609 121.18 43.2641C119.731 43.2289 118.285 43.4087 116.889 43.7977C115.122 44.3407 113.559 45.367 112.107 46.4938C109.587 48.4461 107.117 51.1266 107.341 54.259C107.486 56.2583 108.711 58.0254 109.433 59.8898C110.642 63.0285 110.422 66.5565 109.549 69.8082C109.177 71.1923 108.752 72.8464 109.738 73.9042C110.368 74.5665 111.367 74.7548 112.258 74.6104C113.147 74.4141 113.999 74.0748 114.778 73.606C116.196 72.8559 117.633 72.0931 118.779 70.9915C119.538 70.2633 120.15 69.4033 120.871 68.6406C122.283 67.1821 123.883 65.9157 125.628 64.8741C127.023 64.0392 128.463 64.5602 129.928 65.1032C133.147 66.2803 136.124 68.5056 139.665 68.4428Z" fill="url(#paint19_linear_16:58)"/>
<g opacity="0.05">
<path opacity="0.05" d="M134.392 136.773C133.892 133.67 133.742 130.521 133.945 127.385C134.233 123.101 134.278 118.805 134.077 114.516C133.882 109.494 133.485 104.525 133.104 100.58C132.538 94.6241 129.678 89.1182 125.124 85.2192C124.113 84.3561 123.212 83.7189 122.604 83.562C121.845 83.3611 120.915 82.7585 119.995 82.0271C116.902 79.5695 120.833 84.3561 121.845 85.2192C126.399 89.1182 129.259 94.6241 129.824 100.58C130.202 104.525 130.602 109.494 130.798 114.516C130.998 118.805 130.954 123.101 130.665 127.385C130.463 130.521 130.613 133.67 131.113 136.773C132.807 148.207 137.857 159.575 137.857 159.575C137.857 159.575 113.204 164.538 101.73 165.065C110.721 165.693 141.124 159.575 141.124 159.575C141.124 159.575 136.087 148.201 134.392 136.773Z" fill="url(#paint20_linear_16:58)"/>
</g>
<path d="M164.455 138.822C157.697 146.446 147.894 141.365 147.894 141.365C147.494 140.718 144.35 138.976 141.953 137.708C140.412 136.895 139.177 136.28 139.177 136.28L144.189 132.256L146.725 133.53L150.505 135.432C150.505 135.432 171.218 131.198 164.455 138.822Z" fill="url(#paint21_linear_16:58)"/>
<g opacity="0.1">
<path opacity="0.1" d="M146.725 133.53L141.953 137.708C140.412 136.895 139.177 136.28 139.177 136.28L144.189 132.256L146.725 133.53Z" fill="url(#paint22_linear_16:58)"/>
</g>
<path d="M114.552 105.36C114.552 105.36 123.268 133.951 140.05 138.398L146.586 132.68C146.586 132.68 134.36 117.633 133.932 111.39C133.778 109.083 133.053 105.74 132.206 102.466C129.597 92.3786 114.23 94.378 114.53 104.777C114.536 104.969 114.543 105.164 114.552 105.36Z" fill="url(#paint23_linear_16:58)"/>
<path opacity="0.05" d="M97.6636 133.21C97.6636 133.21 103.334 128.763 108.56 132.152C113.786 135.542 121.416 135.118 122.506 135.329" fill="url(#paint24_linear_16:58)"/>
<path d="M161.38 123.948C157.175 132.824 146.851 130.539 146.851 130.539C146.316 130.034 142.977 129.189 140.447 128.606C138.821 128.229 137.53 127.978 137.53 127.978L141.077 122.928L143.736 123.486L147.702 124.318C147.702 124.318 165.586 115.068 161.38 123.948Z" fill="#F7C4A7"/>
<path opacity="0.08" d="M161.38 123.948C157.175 132.824 146.851 130.539 146.851 130.539C146.316 130.034 142.977 129.189 140.447 128.606C138.821 128.229 137.53 127.978 137.53 127.978L141.077 122.928L143.736 123.486L147.702 124.318C147.702 124.318 165.586 115.068 161.38 123.948Z" fill="black"/>
<path opacity="0.1" d="M143.736 123.455L140.447 128.59C138.821 128.213 137.53 127.962 137.53 127.962L141.077 122.912L143.736 123.455Z" fill="black"/>
<path d="M106.868 105.1C106.868 105.1 122.33 129.783 138.881 129.72L143.383 122.689C143.383 122.689 128.233 111.635 126.217 105.869C125.474 103.741 123.94 100.79 122.305 97.9153C117.264 89.0892 103.718 94.8551 106.695 104.557C106.752 104.735 106.81 104.916 106.868 105.1Z" fill="#575988"/>
<path opacity="0.05" d="M106.868 105.1C106.868 105.1 122.33 129.783 138.881 129.72L143.383 122.689C143.383 122.689 128.233 111.635 126.217 105.869C125.474 103.741 123.94 100.79 122.305 97.9153C117.264 89.0892 103.718 94.8551 106.695 104.557C106.752 104.735 106.81 104.916 106.868 105.1Z" fill="black"/>
<path d="M96.8032 248.555L97.5278 257.13C97.5278 257.13 121.274 253.099 121.066 245.042C120.858 236.985 96.8032 248.555 96.8032 248.555Z" fill="#535461"/>
<path opacity="0.1" d="M96.8032 248.555L97.5278 257.13C97.5278 257.13 121.274 253.099 121.066 245.042C120.858 236.985 96.8032 248.555 96.8032 248.555Z" fill="black"/>
<path d="M124.595 251.241L124.179 258.683C124.179 258.683 157.155 256.204 155.911 249.179C154.667 242.155 137.246 246.078 137.246 246.078L124.595 251.241Z" fill="#535461"/>
<path d="M125.007 178.505C125.007 178.505 123.058 184.01 120.569 190.332C118.187 196.377 115.314 203.172 113.185 206.606C108.844 213.633 108.214 235.328 108.214 235.328C107.385 238.84 111.531 245.661 111.531 245.661C103.236 254.547 95.5623 249.38 95.5623 249.38C97.0146 246.693 94.5259 239.048 94.5259 239.048C94.5259 239.048 97.8431 203.712 99.9191 202.061C101.995 200.41 103.649 192.143 103.649 192.143L101.793 164.054L101.368 157.636L119.205 149.575L120.5 155.982L121.76 162.325L125.007 178.505Z" fill="#6A5C99"/>
<path opacity="0.1" d="M125.007 178.505C125.007 178.505 123.058 184.01 120.569 190.332C118.187 196.377 115.314 203.172 113.185 206.606C108.844 213.633 108.214 235.328 108.214 235.328C107.385 238.84 111.531 245.661 111.531 245.661C103.236 254.547 95.5623 249.38 95.5623 249.38C97.0146 246.693 94.5259 239.048 94.5259 239.048C94.5259 239.048 97.8431 203.712 99.9191 202.061C101.995 200.41 103.649 192.143 103.649 192.143L101.793 164.054L101.368 157.636L119.205 149.575L120.5 155.982L121.76 162.325L125.007 178.505Z" fill="black"/>
<path d="M140.563 246.901C136.83 253.514 123.763 252.685 123.763 252.685V233.26C123.763 233.26 120.03 211.562 122.103 206.603C124.176 201.644 121.275 192.551 121.275 192.551L120.569 190.328L112.111 163.7L109.66 155.978H137.659C137.659 155.978 137.659 157.3 137.659 159.453C137.694 167.717 137.864 188.213 138.689 192.968C139.725 198.96 136.821 202.886 136.821 202.886C136.821 202.886 138.481 227.268 137.029 234.901C135.577 242.535 140.563 246.901 140.563 246.901Z" fill="#6A5C99"/>
<path d="M117.541 65.2695C117.541 65.2695 113.185 77.2531 104.474 81.5909C95.7638 85.9286 118.786 87.1715 118.786 87.1715C118.786 87.1715 122.519 78.0692 131.021 71.6725L117.541 65.2695Z" fill="#F7C4A7"/>
<path opacity="0.1" d="M137.668 159.456C134.197 160.128 128.06 161.308 121.76 162.325C118.464 162.858 115.128 163.348 112.11 163.703C107.47 164.249 103.586 164.481 101.787 164.051L101.362 157.633L119.198 149.572L120.499 155.982H137.671C137.671 155.982 137.659 157.303 137.668 159.456Z" fill="black"/>
<path d="M140.563 158.244C140.563 158.244 105.514 165.464 101.16 163.204C96.8067 160.944 95.7671 155.143 97.0115 148.74C98.2558 142.337 97.0115 126.424 94.7307 106.173C93.5809 95.9755 96.1137 89.1331 98.9111 84.8488C100.116 83.0145 101.761 81.5086 103.697 80.4673C105.633 79.426 107.8 78.8822 110 78.8852C113.804 78.8719 117.497 80.168 120.452 82.5544C121.328 83.2669 122.213 83.8538 122.935 84.0516C123.505 84.2054 124.362 84.8268 125.323 85.668C129.679 89.5164 132.396 94.8775 132.918 100.655C133.28 104.503 133.658 109.353 133.844 114.255C134.036 118.439 133.995 122.631 133.721 126.81C133.528 129.87 133.671 132.941 134.146 135.969C135.756 147.162 140.563 158.244 140.563 158.244Z" fill="#575988"/>
<path opacity="0.1" d="M134.143 136.007C121.423 128.1 114.845 105.976 114.845 105.976C114.845 105.784 114.845 105.593 114.823 105.407C114.539 95.2631 129.163 93.3077 131.645 103.154C132.452 106.362 133.141 109.61 133.286 111.861C133.365 112.687 133.551 113.499 133.841 114.277C134.033 118.461 133.992 122.653 133.718 126.832C133.524 129.897 133.667 132.973 134.143 136.007Z" fill="black"/>
<path opacity="0.1" d="M115.365 72.3976C117.431 75.891 119.069 79.4126 123.272 80.0058C125.326 77.3405 127.723 74.9556 130.401 72.9123L116.921 66.5062C116.921 66.5062 117.699 68.697 115.365 72.3976Z" fill="black"/>
<path d="M125.839 78.9073C133.399 78.9073 139.527 72.8014 139.527 65.2695C139.527 57.7376 133.399 51.6318 125.839 51.6318C118.28 51.6318 112.151 57.7376 112.151 65.2695C112.151 72.8014 118.28 78.9073 125.839 78.9073Z" fill="#F7C4A7"/>
<path opacity="0.1" d="M139.369 69.5445C139.938 69.5673 140.499 69.4137 140.976 69.1051C141.631 68.6186 141.842 67.7429 141.99 66.9425C142.346 65.0593 142.62 63.0505 141.99 61.2238C141.581 60.0153 140.803 58.9733 140.239 57.8277C139.007 55.3167 138.79 52.3161 137.038 50.1441C135.942 48.785 132.099 50.1441 130.489 49.4567C127.024 47.9752 125.537 44.9683 121.775 44.9715C120.391 44.9361 119.01 45.1119 117.68 45.4925C115.998 46.0198 114.511 47.0305 113.131 48.1228C110.724 50.028 108.38 52.6425 108.595 55.6996C108.733 57.6519 109.899 59.3594 110.586 61.1924C111.739 64.262 111.531 67.6989 110.696 70.869C110.343 72.2187 109.937 73.832 110.875 74.8677C111.461 75.5112 112.425 75.6995 113.285 75.5551C114.138 75.3641 114.952 75.0332 115.695 74.5758C117.044 73.8445 118.411 73.1007 119.501 72.0272C120.222 71.3147 120.805 70.4767 121.492 69.7328C122.831 68.3136 124.353 67.0777 126.019 66.0574C127.348 65.2444 128.712 65.7435 130.114 66.2802C133.166 67.4353 135.999 69.6073 139.369 69.5445Z" fill="black"/>
<path d="M139.161 69.3373C139.729 69.3619 140.29 69.2106 140.768 68.9042C141.423 68.4177 141.634 67.542 141.782 66.7416C142.138 64.8584 142.412 62.8496 141.782 61.0229C141.373 59.8145 140.595 58.7724 140.031 57.6268C138.799 55.1158 138.582 52.1152 136.83 49.9432C135.734 48.5842 132.105 50.1535 130.489 49.463C127.023 47.9815 125.329 44.7549 121.567 44.7549C120.183 44.7196 118.802 44.8953 117.472 45.276C115.79 45.8033 114.303 46.8139 112.923 47.9062C110.516 49.8114 108.172 52.4259 108.387 55.483C108.525 57.4353 109.691 59.1428 110.378 60.9758C111.531 64.0454 111.323 67.4823 110.488 70.6524C110.135 72.0021 109.729 73.6154 110.667 74.6512C111.253 75.2946 112.217 75.4829 113.077 75.3385C113.93 75.1475 114.744 74.8166 115.487 74.3592C116.836 73.6279 118.203 72.8841 119.293 71.8106C120.014 71.0981 120.597 70.2601 121.284 69.5162C122.637 68.0984 124.175 66.8666 125.855 65.8533C127.184 65.0404 128.548 65.5395 129.95 66.0762C132.959 67.2218 135.791 69.4001 139.161 69.3373Z" fill="#632652"/>
<path opacity="0.05" d="M134.143 136.007C133.672 132.981 133.534 129.913 133.73 126.857C134.004 122.678 134.045 118.486 133.853 114.302C133.667 109.4 133.289 104.554 132.927 100.702C132.405 94.9246 129.688 89.5635 125.332 85.7151C124.371 84.8708 123.514 84.2524 122.944 84.0986C122.222 83.9009 121.337 83.314 120.461 82.6015C117.516 80.2035 121.258 84.8739 122.222 85.7151C126.579 89.5635 129.296 94.9246 129.818 100.702C130.18 104.551 130.558 109.4 130.744 114.302C130.936 118.486 130.895 122.678 130.621 126.857C130.428 129.917 130.571 132.988 131.046 136.016C132.659 147.171 137.466 158.263 137.466 158.263C137.466 158.263 114.003 163.103 103.088 163.621C111.644 164.249 140.576 158.263 140.576 158.263C140.576 158.263 135.756 147.162 134.143 136.007Z" fill="black"/>
<path d="M162.753 138.006C156.324 145.445 147.002 140.486 147.002 140.486C146.624 139.858 143.631 138.154 141.332 136.92C139.867 136.126 138.692 135.526 138.692 135.526L143.461 131.6L145.874 132.855L149.481 134.704C149.481 134.704 169.183 130.567 162.753 138.006Z" fill="#F7C4A7"/>
<path opacity="0.1" d="M145.881 132.843L141.338 136.923C139.873 136.129 138.698 135.53 138.698 135.53L143.468 131.603L145.881 132.843Z" fill="black"/>
<path d="M115.261 105.357C115.261 105.357 123.555 133.254 139.517 137.592L145.739 132.011C145.739 132.011 134.083 117.331 133.696 111.239C133.548 108.989 132.861 105.737 132.051 102.532C129.569 92.6894 114.946 94.6417 115.232 104.786C115.243 104.974 115.252 105.165 115.261 105.357Z" fill="#575988"/>
<path opacity="0.05" d="M99.188 132.529C99.188 132.529 104.581 128.188 109.559 131.496C114.536 134.805 121.794 134.39 122.83 134.597" fill="black"/>
</g>
<defs>
<linearGradient id="paint0_linear_16:58" x1="179.988" y1="234.333" x2="179.988" y2="2.06836" gradientUnits="userSpaceOnUse">
<stop stop-color="#808080" stop-opacity="0.25"/>
<stop offset="0.54" stop-color="#808080" stop-opacity="0.12"/>
<stop offset="1" stop-color="#808080" stop-opacity="0.1"/>
</linearGradient>
<linearGradient id="paint1_linear_16:58" x1="13605" y1="5064.17" x2="13605" y2="4680.58" gradientUnits="userSpaceOnUse">
<stop stop-color="#808080" stop-opacity="0.25"/>
<stop offset="0.54" stop-color="#808080" stop-opacity="0.12"/>
<stop offset="1" stop-color="#808080" stop-opacity="0.1"/>
</linearGradient>
<linearGradient id="paint2_linear_16:58" x1="13605" y1="5064.17" x2="13605" y2="4680.58" gradientUnits="userSpaceOnUse">
<stop stop-color="#808080" stop-opacity="0.25"/>
<stop offset="0.54" stop-color="#808080" stop-opacity="0.12"/>
<stop offset="1" stop-color="#808080" stop-opacity="0.1"/>
</linearGradient>
<linearGradient id="paint3_linear_16:58" x1="3355.81" y1="2708.94" x2="3355.81" y2="2600.58" gradientUnits="userSpaceOnUse">
<stop stop-color="#808080" stop-opacity="0.25"/>
<stop offset="0.54" stop-color="#808080" stop-opacity="0.12"/>
<stop offset="1" stop-color="#808080" stop-opacity="0.1"/>
</linearGradient>
<linearGradient id="paint4_linear_16:58" x1="17265" y1="16674.9" x2="17265" y2="12294.5" gradientUnits="userSpaceOnUse">
<stop stop-color="#808080" stop-opacity="0.25"/>
<stop offset="0.54" stop-color="#808080" stop-opacity="0.12"/>
<stop offset="1" stop-color="#808080" stop-opacity="0.1"/>
</linearGradient>
<linearGradient id="paint5_linear_16:58" x1="17265" y1="16674.9" x2="17265" y2="12294.5" gradientUnits="userSpaceOnUse">
<stop stop-color="#808080" stop-opacity="0.25"/>
<stop offset="0.54" stop-color="#808080" stop-opacity="0.12"/>
<stop offset="1" stop-color="#808080" stop-opacity="0.1"/>
</linearGradient>
<linearGradient id="paint6_linear_16:58" x1="9963.92" y1="13461.8" x2="9963.92" y2="12714.7" gradientUnits="userSpaceOnUse">
<stop stop-color="#808080" stop-opacity="0.25"/>
<stop offset="0.54" stop-color="#808080" stop-opacity="0.12"/>
<stop offset="1" stop-color="#808080" stop-opacity="0.1"/>
</linearGradient>
<linearGradient id="paint7_linear_16:58" x1="9963.92" y1="13461.8" x2="9963.92" y2="12714.7" gradientUnits="userSpaceOnUse">
<stop stop-color="#808080" stop-opacity="0.25"/>
<stop offset="0.54" stop-color="#808080" stop-opacity="0.12"/>
<stop offset="1" stop-color="#808080" stop-opacity="0.1"/>
</linearGradient>
<linearGradient id="paint8_linear_16:58" x1="16507.3" y1="12427.2" x2="16507.3" y2="11799.7" gradientUnits="userSpaceOnUse">
<stop stop-color="#808080" stop-opacity="0.25"/>
<stop offset="0.54" stop-color="#808080" stop-opacity="0.12"/>
<stop offset="1" stop-color="#808080" stop-opacity="0.1"/>
</linearGradient>
<linearGradient id="paint9_linear_16:58" x1="12579.6" y1="87647" x2="12579.6" y2="53301.8" gradientUnits="userSpaceOnUse">
<stop stop-color="#808080" stop-opacity="0.25"/>
<stop offset="0.54" stop-color="#808080" stop-opacity="0.12"/>
<stop offset="1" stop-color="#808080" stop-opacity="0.1"/>
</linearGradient>
<linearGradient id="paint10_linear_16:58" x1="12579.6" y1="87647" x2="12579.6" y2="53301.8" gradientUnits="userSpaceOnUse">
<stop stop-color="#808080" stop-opacity="0.25"/>
<stop offset="0.54" stop-color="#808080" stop-opacity="0.12"/>
<stop offset="1" stop-color="#808080" stop-opacity="0.1"/>
</linearGradient>
<linearGradient id="paint11_linear_16:58" x1="14427" y1="84316.1" x2="14427" y2="52992.1" gradientUnits="userSpaceOnUse">
<stop stop-color="#808080" stop-opacity="0.25"/>
<stop offset="0.54" stop-color="#808080" stop-opacity="0.12"/>
<stop offset="1" stop-color="#808080" stop-opacity="0.1"/>
</linearGradient>
<linearGradient id="paint12_linear_16:58" x1="12478.9" y1="6981.21" x2="12478.9" y2="5375.72" gradientUnits="userSpaceOnUse">
<stop stop-color="#808080" stop-opacity="0.25"/>
<stop offset="0.54" stop-color="#808080" stop-opacity="0.12"/>
<stop offset="1" stop-color="#808080" stop-opacity="0.1"/>
</linearGradient>
<linearGradient id="paint13_linear_16:58" x1="16209.5" y1="8592.69" x2="16209.5" y2="7868.96" gradientUnits="userSpaceOnUse">
<stop stop-color="#808080" stop-opacity="0.25"/>
<stop offset="0.54" stop-color="#808080" stop-opacity="0.12"/>
<stop offset="1" stop-color="#808080" stop-opacity="0.1"/>
</linearGradient>
<linearGradient id="paint14_linear_16:58" x1="20232" y1="48535" x2="20232" y2="24497.7" gradientUnits="userSpaceOnUse">
<stop stop-color="#808080" stop-opacity="0.25"/>
<stop offset="0.54" stop-color="#808080" stop-opacity="0.12"/>
<stop offset="1" stop-color="#808080" stop-opacity="0.1"/>
</linearGradient>
<linearGradient id="paint15_linear_16:58" x1="9025.28" y1="18933.5" x2="9025.28" y2="13763.2" gradientUnits="userSpaceOnUse">
<stop stop-color="#808080" stop-opacity="0.25"/>
<stop offset="0.54" stop-color="#808080" stop-opacity="0.12"/>
<stop offset="1" stop-color="#808080" stop-opacity="0.1"/>
</linearGradient>
<linearGradient id="paint16_linear_16:58" x1="6963.89" y1="4004.91" x2="6963.89" y2="3395.19" gradientUnits="userSpaceOnUse">
<stop stop-color="#808080" stop-opacity="0.25"/>
<stop offset="0.54" stop-color="#808080" stop-opacity="0.12"/>
<stop offset="1" stop-color="#808080" stop-opacity="0.1"/>
</linearGradient>
<linearGradient id="paint17_linear_16:58" x1="11587.1" y1="7019.34" x2="11587.1" y2="4529.54" gradientUnits="userSpaceOnUse">
<stop stop-color="#808080" stop-opacity="0.25"/>
<stop offset="0.54" stop-color="#808080" stop-opacity="0.12"/>
<stop offset="1" stop-color="#808080" stop-opacity="0.1"/>
</linearGradient>
<linearGradient id="paint18_linear_16:58" x1="15804.2" y1="8531.46" x2="15804.2" y2="5391.52" gradientUnits="userSpaceOnUse">
<stop stop-color="#808080" stop-opacity="0.25"/>
<stop offset="0.54" stop-color="#808080" stop-opacity="0.12"/>
<stop offset="1" stop-color="#808080" stop-opacity="0.1"/>
</linearGradient>
<linearGradient id="paint19_linear_16:58" x1="15779.1" y1="8510.21" x2="15779.1" y2="5370.26" gradientUnits="userSpaceOnUse">
<stop stop-color="#808080" stop-opacity="0.25"/>
<stop offset="0.54" stop-color="#808080" stop-opacity="0.12"/>
<stop offset="1" stop-color="#808080" stop-opacity="0.1"/>
</linearGradient>
<linearGradient id="paint20_linear_16:58" x1="17040.6" y1="46819.2" x2="17040.6" y2="24453.1" gradientUnits="userSpaceOnUse">
<stop stop-color="#808080" stop-opacity="0.25"/>
<stop offset="0.54" stop-color="#808080" stop-opacity="0.12"/>
<stop offset="1" stop-color="#808080" stop-opacity="0.1"/>
</linearGradient>
<linearGradient id="paint21_linear_16:58" x1="14217.2" y1="5381.46" x2="14217.2" y2="5012.13" gradientUnits="userSpaceOnUse">
<stop stop-color="#808080" stop-opacity="0.25"/>
<stop offset="0.54" stop-color="#808080" stop-opacity="0.12"/>
<stop offset="1" stop-color="#808080" stop-opacity="0.1"/>
</linearGradient>
<linearGradient id="paint22_linear_16:58" x1="3900.09" y1="2697.79" x2="3900.09" y2="2603.09" gradientUnits="userSpaceOnUse">
<stop stop-color="#808080" stop-opacity="0.25"/>
<stop offset="0.54" stop-color="#808080" stop-opacity="0.12"/>
<stop offset="1" stop-color="#808080" stop-opacity="0.1"/>
</linearGradient>
<linearGradient id="paint23_linear_16:58" x1="14828" y1="20209.3" x2="14828" y2="14442.9" gradientUnits="userSpaceOnUse">
<stop stop-color="#808080" stop-opacity="0.25"/>
<stop offset="0.54" stop-color="#808080" stop-opacity="0.12"/>
<stop offset="1" stop-color="#808080" stop-opacity="0.1"/>
</linearGradient>
<linearGradient id="paint24_linear_16:58" x1="9884.18" y1="2191.28" x2="9884.18" y2="2128.22" gradientUnits="userSpaceOnUse">
<stop stop-color="#808080" stop-opacity="0.25"/>
<stop offset="0.54" stop-color="#808080" stop-opacity="0.12"/>
<stop offset="1" stop-color="#808080" stop-opacity="0.1"/>
</linearGradient>
<clipPath id="clip0_16:58">
<rect width="350" height="262.5" fill="white"/>
</clipPath>
</defs>
</svg>
