<svg width="350" height="307" viewBox="0 0 350 307" fill="none" xmlns="http://www.w3.org/2000/svg">
<g clip-path="url(#clip0_16:186)">
<path d="M59.0252 271.555C47.5268 277.755 42.5908 290.914 42.5908 290.914C42.5908 290.914 56.2974 294.02 67.7958 287.82C79.2941 281.62 84.2301 268.461 84.2301 268.461C84.2301 268.461 70.5236 265.355 59.0252 271.555Z" fill="#5260A6"/>
<path d="M62.8081 275.817C56.0735 287.01 42.6968 291.321 42.6968 291.321C42.6968 291.321 40.239 277.484 46.9736 266.29C53.7081 255.096 67.0847 250.785 67.0847 250.785C67.0847 250.785 69.5426 264.623 62.8081 275.817Z" fill="#444E80"/>
<path d="M275.622 21.5397H234.825V45.6961H275.622V21.5397Z" fill="#2F2E41"/>
<path d="M194.407 25.4348H173.372V18.0999C173.372 15.3105 174.48 12.6354 176.452 10.6631C178.425 8.6907 181.1 7.58264 183.889 7.58264C186.679 7.58264 189.354 8.6907 191.326 10.6631C193.298 12.6354 194.407 15.3105 194.407 18.0999V25.4348ZM173.838 24.9691H193.941V18.0999C193.941 15.434 192.882 12.8774 190.997 10.9924C189.112 9.10733 186.555 8.04834 183.889 8.04834C181.223 8.04834 178.667 9.10733 176.782 10.9924C174.897 12.8774 173.838 15.434 173.838 18.0999V24.9691Z" fill="#3F3D56"/>
<path d="M204.807 24.4259V21.5593L151.314 22.9926L149.621 95.6015L157.538 105.381L204.807 24.4259Z" fill="#3F3D56"/>
<path d="M214.277 23.4167L156.296 24.7362L157.538 105.381L213.492 99.3501L214.277 23.4167Z" fill="#5260A6"/>
<path d="M263.572 284.7H256.991L253.86 259.315H263.573L263.572 284.7Z" fill="#FFB6B6"/>
<path d="M265.25 291.079L244.03 291.079V290.81C244.03 288.62 244.9 286.519 246.449 284.97C247.998 283.421 250.099 282.551 252.289 282.551H252.29L265.251 282.551L265.25 291.079Z" fill="#2F2E41"/>
<path d="M239.416 284.7H232.834L229.704 259.315H239.417L239.416 284.7Z" fill="#FFB6B6"/>
<path d="M241.094 291.079L219.874 291.079V290.81C219.874 288.62 220.744 286.519 222.293 284.97C223.842 283.421 225.943 282.551 228.133 282.551H228.134L241.094 282.551L241.094 291.079Z" fill="#2F2E41"/>
<path d="M220.088 125.753C220.088 125.753 210.472 146.46 219.159 188.141C227.846 229.822 227.918 275.581 227.918 275.581L241.201 275.797L248.662 177.282L252.569 274.407H265.655L277.189 178.817C277.189 178.817 284.778 136.134 267.853 128.492L220.088 125.753Z" fill="#2F2E41"/>
<path d="M266.114 52.6745L237.031 49.9937C227.911 56.6413 222.792 68.5807 223.843 80.8997C225.268 97.6023 224.786 120.588 213.353 130.574C213.353 130.574 244.514 155.168 272.195 131.836C272.195 131.836 262.73 106.478 269.228 96.3515C275.727 86.2251 278.072 57.7742 266.114 52.6745Z" fill="#E4E4E4"/>
<path d="M179.577 11.4028C179.488 12.2411 179.584 13.0888 179.858 13.8862C180.132 14.6835 180.577 15.4111 181.162 16.0177C181.748 16.6243 182.459 17.0952 183.246 17.3971C184.034 17.699 184.877 17.8247 185.718 17.7653L224.118 53.6015L231 43.1177L191.091 11.1885C190.897 9.7823 190.194 8.49597 189.116 7.57321C188.037 6.65045 186.658 6.15537 185.239 6.18179C183.82 6.20821 182.459 6.7543 181.416 7.71656C180.373 8.67882 179.718 9.99041 179.577 11.4028Z" fill="#FFB6B6"/>
<path d="M216.947 48.0655L226.057 38.7079C226.316 38.4417 226.63 38.2344 226.976 38.1003C227.323 37.9661 227.694 37.9083 228.065 37.9306C228.436 37.9529 228.798 38.0549 229.125 38.2296C229.453 38.4043 229.74 38.6477 229.965 38.9431L237.863 49.2941C239.217 50.628 239.988 52.4446 240.005 54.3455C240.022 56.2465 239.285 58.0767 237.955 59.435C236.625 60.7932 234.81 61.5687 232.91 61.5913C231.009 61.614 229.176 60.882 227.814 59.5558L217.287 51.9661C216.986 51.7487 216.735 51.469 216.552 51.1458C216.368 50.8227 216.256 50.4638 216.224 50.0937C216.192 49.7235 216.24 49.3507 216.365 49.0007C216.489 48.6507 216.688 48.3317 216.947 48.0655V48.0655Z" fill="#E4E4E4"/>
<path d="M322.238 98.672C322.281 97.83 322.138 96.9889 321.821 96.208C321.503 95.4271 321.018 94.7254 320.399 94.1523C319.781 93.5791 319.045 93.1485 318.242 92.8908C317.439 92.633 316.59 92.5544 315.753 92.6605L275.422 59.0131L269.133 69.863L310.755 99.5256C311.026 100.919 311.799 102.164 312.927 103.026C314.055 103.887 315.46 104.305 316.876 104.199C318.291 104.094 319.619 103.473 320.607 102.455C321.596 101.436 322.176 100.09 322.238 98.672Z" fill="#FFB6B6"/>
<path d="M282.889 64.1422L274.314 73.9914C274.07 74.2716 273.768 74.496 273.43 74.6492C273.091 74.8024 272.724 74.8808 272.352 74.8791C271.98 74.8775 271.614 74.7957 271.276 74.6395C270.939 74.4833 270.64 74.2562 270.398 73.9738L261.938 64.0774C260.511 62.8209 259.641 61.0499 259.518 59.1528C259.395 57.2556 260.029 55.3871 261.282 53.9569C262.535 52.5267 264.303 51.6517 266.2 51.5235C268.097 51.3954 269.967 52.0247 271.401 53.2734L282.333 60.2664C282.646 60.4668 282.912 60.7322 283.113 61.0446C283.314 61.357 283.446 61.7092 283.499 62.077C283.551 62.4448 283.524 62.8196 283.419 63.176C283.314 63.5324 283.133 63.862 282.889 64.1422Z" fill="#E4E4E4"/>
<path d="M326.336 112.9H310.403V107.344C310.403 105.231 311.243 103.204 312.737 101.71C314.231 100.216 316.257 99.3771 318.37 99.3771C320.483 99.3771 322.509 100.216 324.003 101.71C325.497 103.204 326.336 105.231 326.336 107.344L326.336 112.9ZM310.756 112.547H325.984V107.344C325.984 105.324 325.181 103.388 323.754 101.96C322.326 100.532 320.389 99.7298 318.37 99.7298C316.35 99.7298 314.414 100.532 312.986 101.96C311.558 103.388 310.756 105.324 310.756 107.344V112.547Z" fill="#3F3D56"/>
<path d="M334.214 112.135V109.964L293.695 111.05L292.413 166.049L298.409 173.457L334.214 112.135Z" fill="#3F3D56"/>
<path d="M341.387 111.371L297.469 112.37L298.409 173.457L340.793 168.888L341.387 111.371Z" fill="#5260A6"/>
<path d="M253.613 45.1593C263.1 45.1593 270.791 37.4685 270.791 27.9814C270.791 18.4943 263.1 10.8035 253.613 10.8035C244.126 10.8035 236.435 18.4943 236.435 27.9814C236.435 37.4685 244.126 45.1593 253.613 45.1593Z" fill="#FFB6B6"/>
<path d="M245.704 20.3255C251.647 26.149 261.988 26.7071 268.523 21.557C270.337 27.8126 270.535 34.4258 269.1 40.7789C267.665 47.1321 264.643 53.0177 260.316 57.8862C263.951 59.1996 268.136 58.3355 271.385 56.2421C274.634 54.1486 277.04 50.9522 278.856 47.5402C283.351 39.0937 284.476 28.7801 281.296 19.756C278.116 10.7318 270.498 3.24887 261.241 0.825852C251.985 -1.59717 241.372 1.39586 235.188 8.69689C228.721 16.3315 227.674 27.5181 230.507 37.1137C233.341 46.7092 239.557 54.9496 246.386 62.2619C243.106 53.8273 240.93 45.0037 239.914 36.011C239.567 32.9311 239.364 29.7565 240.234 26.7817C241.104 23.807 243.245 21.0362 246.23 20.2004" fill="#2F2E41"/>
<path d="M349.463 292.092H144.939C144.796 292.092 144.66 292.035 144.559 291.935C144.458 291.834 144.402 291.697 144.402 291.555C144.402 291.413 144.458 291.276 144.559 291.175C144.66 291.075 144.796 291.018 144.939 291.018H349.463C349.606 291.018 349.742 291.075 349.843 291.175C349.943 291.276 350 291.413 350 291.555C350 291.697 349.943 291.834 349.843 291.935C349.742 292.035 349.606 292.092 349.463 292.092Z" fill="#CACACA"/>
<path d="M87.5 292.092H0.53681C0.394439 292.092 0.257907 292.035 0.157236 291.935C0.0565644 291.834 0 291.697 0 291.555C0 291.413 0.0565644 291.276 0.157236 291.175C0.257907 291.075 0.394439 291.018 0.53681 291.018H87.5C87.6424 291.018 87.7789 291.075 87.8796 291.175C87.9802 291.276 88.0368 291.413 88.0368 291.555C88.0368 291.697 87.9802 291.834 87.8796 291.935C87.7789 292.035 87.6424 292.092 87.5 292.092Z" fill="#CACACA"/>
<path d="M317.747 245.492H301.814V239.935C301.814 237.823 302.654 235.796 304.148 234.302C305.642 232.808 307.668 231.969 309.781 231.969C311.894 231.969 313.92 232.808 315.414 234.302C316.908 235.796 317.748 237.823 317.748 239.935L317.747 245.492ZM302.167 245.139H317.395V239.935C317.395 237.916 316.593 235.98 315.165 234.552C313.737 233.124 311.8 232.322 309.781 232.322C307.762 232.322 305.825 233.124 304.397 234.552C302.969 235.98 302.167 237.916 302.167 239.935V245.139Z" fill="#5260A6"/>
<path d="M325.626 244.727V242.556L285.106 243.642L283.824 298.641L289.82 306.049L325.626 244.727Z" fill="#444F8B"/>
<path d="M332.798 243.963L288.88 244.962L289.82 306.049L332.204 301.48L332.798 243.963Z" fill="#5260A6"/>
</g>
<defs>
<clipPath id="clip0_16:186">
<rect width="350" height="306.049" fill="white"/>
</clipPath>
</defs>
</svg>
