<svg width="350" height="201" viewBox="0 0 350 201" fill="none" xmlns="http://www.w3.org/2000/svg">
<g clip-path="url(#clip0_16:21)">
<path d="M6.03646 77.1897H121.154C122.652 77.1897 124.09 77.7826 125.15 78.8379C126.209 79.8933 126.805 81.3246 126.805 82.8171V91.7556H0.385498V82.8171C0.385499 81.3246 0.980866 79.8932 2.04063 78.8379C3.10039 77.7826 4.53773 77.1897 6.03646 77.1897Z" fill="#3F3D56"/>
<path d="M118.969 76.1493C118.4 76.1518 117.836 76.2475 117.298 76.4326C117.114 75.6938 116.664 75.0478 116.034 74.6166C115.404 74.1854 114.637 73.9987 113.879 74.0919C113.12 74.185 112.422 74.5516 111.916 75.1223C111.41 75.6931 111.132 76.4285 111.133 77.1897C111.133 77.2053 111.137 77.2197 111.137 77.2352C110.745 77.2722 110.359 77.3519 109.985 77.473C109.878 77.0529 109.686 76.6593 109.419 76.3171C109.152 75.9749 108.817 75.6915 108.435 75.4847C109.439 74.9319 110.234 74.0661 110.696 73.0204C113.252 72.979 115.312 71.1388 115.312 68.8663C115.312 66.5679 113.207 64.7046 110.611 64.7046C110.042 64.7071 109.477 64.8028 108.94 64.9879C108.843 64.5787 108.665 64.1932 108.414 63.8547C108.164 63.5162 107.848 63.2317 107.484 63.0184C107.12 62.805 106.717 62.6673 106.299 62.6134C105.88 62.5596 105.455 62.5907 105.049 62.7051C104.642 62.8194 104.264 63.0145 103.935 63.2786C103.607 63.5427 103.336 63.8703 103.138 64.2417C102.94 64.613 102.82 65.0204 102.785 65.4393C102.75 65.8581 102.8 66.2798 102.933 66.6787C102.808 66.7652 102.692 66.8624 102.575 66.9592C101.984 66.4527 101.217 66.1983 100.439 66.251C100.037 65.102 99.2418 64.1304 98.1929 63.5065C97.1441 62.8826 95.9081 62.6461 94.7017 62.8385C93.4953 63.0309 92.3954 63.6398 91.5946 64.5587C90.7938 65.4776 90.3432 66.6478 90.3218 67.8643C89.9026 67.8974 89.4887 67.9796 89.0888 68.1092C89.0439 67.9331 88.9836 67.7613 88.9086 67.5957C89.3211 67.2334 89.6525 66.7888 89.8813 66.2907C90.1102 65.7927 90.2315 65.2523 90.2372 64.7046C90.2372 62.4062 88.1323 60.5429 85.5357 60.5429C84.9669 60.5454 84.4024 60.6412 83.8649 60.8262C83.7684 60.417 83.5897 60.0315 83.3395 59.693C83.0893 59.3545 82.7729 59.07 82.4092 58.8567C82.0456 58.6433 81.6423 58.5056 81.2237 58.4517C80.8051 58.3979 80.3798 58.4291 79.9737 58.5434C79.5675 58.6577 79.1888 58.8528 78.8605 59.1169C78.5322 59.381 78.261 59.7086 78.0633 60.08C77.8656 60.4514 77.7455 60.8588 77.7103 61.2776C77.6751 61.6965 77.7255 62.1181 77.8584 62.517C77.2006 62.9719 76.6569 63.5718 76.2696 64.27C75.8823 64.9681 75.6619 65.7458 75.6255 66.5426C75.5813 66.5817 75.5306 66.6133 75.4887 66.6549C75.5669 66.3578 75.6077 66.0522 75.6102 65.7451C75.6102 63.4466 73.5053 61.5834 70.9087 61.5834C70.3399 61.5859 69.7754 61.6816 69.2379 61.8667C69.1414 61.4575 68.9627 61.072 68.7125 60.7335C68.4623 60.3949 68.1459 60.1104 67.7822 59.8971C67.4186 59.6837 67.0153 59.546 66.5967 59.4921C66.1781 59.4383 65.7529 59.4695 65.3467 59.5838C64.9405 59.6981 64.5619 59.8933 64.2335 60.1574C63.9052 60.4214 63.6339 60.7491 63.4363 61.1204C63.2386 61.4918 63.1185 61.8992 63.0833 62.318C63.0481 62.7369 63.0985 63.1585 63.2314 63.5574C62.5379 64.0347 61.971 64.6724 61.5794 65.4159C61.1878 66.1594 60.9832 66.9864 60.9832 67.8259C60.9832 68.6654 61.1878 69.4924 61.5794 70.2359C61.971 70.9794 62.5379 71.6171 63.2314 72.0944C63.0199 72.699 63.0199 73.357 63.2314 73.9616C62.7079 74.3254 62.255 74.7808 61.8948 75.3057C61.7013 74.6068 61.2683 73.9975 60.6707 73.5836C60.0732 73.1696 59.3489 72.9771 58.6237 73.0395C57.8985 73.102 57.2181 73.4153 56.7007 73.9253C56.1834 74.4352 55.8617 75.1094 55.7915 75.8309C55.3727 75.5865 54.9201 75.4045 54.4483 75.2905C55.2946 74.7342 55.961 73.9457 56.3671 73.0204C58.9233 72.979 60.9832 71.1388 60.9832 68.8663C60.9832 66.5679 58.8782 64.7046 56.2816 64.7046C55.7129 64.7071 55.1484 64.8028 54.6108 64.9879C54.5144 64.5787 54.3357 64.1932 54.0855 63.8547C53.8353 63.5162 53.5188 63.2317 53.1552 63.0183C52.7915 62.805 52.3882 62.6673 51.9696 62.6134C51.551 62.5596 51.1258 62.5907 50.7197 62.7051C50.3135 62.8194 49.9348 63.0145 49.6065 63.2786C49.2781 63.5427 49.0069 63.8703 48.8092 64.2417C48.6115 64.613 48.4915 65.0204 48.4563 65.4393C48.4211 65.8581 48.4715 66.2797 48.6044 66.6787C48.5374 66.7251 48.477 66.7797 48.4123 66.8291C48.2493 66.814 48.0908 66.7855 47.9234 66.7855C47.3546 66.788 46.7901 66.8837 46.2525 67.0688C46.2328 66.9903 46.2003 66.9174 46.1747 66.8414C46.2759 66.3782 46.2678 65.898 46.1512 65.4385C46.0345 64.9789 45.8125 64.5525 45.5024 64.1928C45.1924 63.8332 44.8028 63.55 44.3644 63.3655C43.9259 63.181 43.4504 63.1003 42.9753 63.1297C42.7033 62.3753 42.2597 61.6937 41.6792 61.1383C41.0987 60.583 40.397 60.1688 39.6291 59.9284C38.8612 59.6879 38.0479 59.6276 37.2527 59.7521C36.4574 59.8767 35.702 60.1827 35.0452 60.6463C34.3885 61.1099 33.8484 61.7185 33.4671 62.4245C33.0859 63.1305 32.8737 63.9147 32.8474 64.7159C32.821 65.5171 32.9811 66.3135 33.3152 67.0429C33.6492 67.7722 34.1482 68.4147 34.773 68.9201C34.4136 68.9612 34.0591 69.038 33.7151 69.1496C33.5916 68.6423 33.3411 68.1745 32.9871 67.7895C32.6331 67.4046 32.187 67.1151 31.6905 66.9481C31.1939 66.7811 30.6629 66.7419 30.147 66.8342C29.6311 66.9266 29.1471 67.1474 28.74 67.4762C28.2744 66.9255 27.6918 66.4845 27.0343 66.1852C26.3769 65.8858 25.6609 65.7355 24.938 65.7451C24.3692 65.7476 23.8048 65.8433 23.2672 66.0283C23.1708 65.6192 22.9921 65.2337 22.7419 64.8951C22.4917 64.5566 22.1752 64.2721 21.8116 64.0588C21.4479 63.8454 21.0446 63.7077 20.626 63.6538C20.2074 63.6 19.7822 63.6312 19.376 63.7455C18.9699 63.8598 18.5912 64.0549 18.2628 64.319C17.9345 64.5831 17.6633 64.9108 17.4656 65.2821C17.2679 65.6535 17.1478 66.0609 17.1126 66.4797C17.0774 66.8986 17.1278 67.3202 17.2608 67.7191C16.5673 68.1965 16.0005 68.8343 15.609 69.5777C15.2174 70.3212 15.0127 71.1481 15.0125 71.9876C15.0125 72.0037 15.0172 72.0185 15.0173 72.0346C14.2765 71.9228 13.5192 72.0042 12.8193 72.2709C12.7229 71.8617 12.5442 71.4762 12.294 71.1377C12.0438 70.7992 11.7273 70.5147 11.3637 70.3013C11 70.088 10.5967 69.9503 10.1781 69.8964C9.75953 69.8426 9.33432 69.8738 8.92817 69.9881C8.52201 70.1024 8.14334 70.2975 7.81499 70.5616C7.48665 70.8257 7.21544 71.1533 7.01776 71.5247C6.82007 71.896 6.7 72.3034 6.66479 72.7223C6.62958 73.1411 6.67996 73.5627 6.8129 73.9616C5.80529 74.6409 5.06865 75.6504 4.73108 76.8145C4.39351 77.9786 4.47637 79.2238 4.96525 80.3334C5.45413 81.443 6.3181 82.3468 7.40691 82.8877C8.49572 83.4286 9.74048 83.5724 10.9247 83.294C11.1133 84.3795 11.6442 85.3769 12.4405 86.1416C13.2368 86.9063 14.257 87.3985 15.3531 87.5468C16.4493 87.6951 17.5643 87.4917 18.5366 86.9663C19.5089 86.4409 20.2878 85.6207 20.7603 84.6246C21.1883 85.5263 21.8683 86.2859 22.7188 86.8124C23.5693 87.339 24.5543 87.61 25.5556 87.5932C26.5569 87.5764 27.5321 87.2723 28.3643 86.7175C29.1965 86.1626 29.8503 85.3806 30.2475 84.465C30.8631 84.4564 31.4723 84.339 32.0466 84.1182C32.392 85.1037 33.028 85.9625 33.8716 86.582C34.7151 87.2016 35.7269 87.5531 36.7743 87.5906C37.8218 87.6281 38.8563 87.3498 39.7423 86.7921C40.6283 86.2344 41.3247 85.4233 41.7401 84.465C42.5019 84.45 43.2506 84.2655 43.9315 83.9251C44.4082 84.7642 45.1107 85.4541 45.9599 85.9172C46.8091 86.3802 47.7712 86.598 48.7379 86.546C49.7047 86.494 50.6376 86.1742 51.4318 85.6228C52.2259 85.0713 52.8496 84.31 53.2328 83.4246C53.5131 83.4178 53.7925 83.3887 54.0682 83.3376C54.4591 84.2817 55.1207 85.0902 55.9703 85.6621C56.8199 86.2341 57.82 86.544 58.8454 86.5533C59.8709 86.5626 60.8764 86.2708 61.7364 85.7144C62.5963 85.1579 63.2726 84.3615 63.6807 83.4246C64.091 83.4131 64.4985 83.3533 64.8947 83.2463C65.9447 83.5378 67.0609 83.4861 68.0792 83.0988C69.0975 82.7116 69.9641 82.0092 70.5517 81.095C70.2234 82.3619 70.3869 83.7055 71.0094 84.8578C71.6319 86.01 72.6678 86.8862 73.9103 87.3115C75.1529 87.7369 76.5108 87.6801 77.7132 87.1525C78.9156 86.6249 79.874 85.6652 80.3973 84.465C81.159 84.45 81.9077 84.2655 82.5886 83.9251C83.0653 84.7642 83.7678 85.4541 84.617 85.9172C85.4662 86.3802 86.4283 86.598 87.3951 86.546C88.3618 86.494 89.2948 86.1742 90.0889 85.6228C90.883 85.0713 91.5068 84.31 91.8899 83.4246C92.6517 83.4095 93.4004 83.2251 94.0813 82.8847C94.4487 83.5366 94.9543 84.101 95.563 84.5387C96.1716 84.9764 96.8687 85.2768 97.6057 85.419C98.3427 85.5613 99.102 85.542 99.8308 85.3625C100.56 85.1829 101.24 84.8475 101.826 84.3795C102.007 85.3747 102.477 86.2953 103.178 87.0276C103.879 87.76 104.779 88.272 105.769 88.5005C106.758 88.729 107.793 88.664 108.746 88.3135C109.699 87.963 110.528 87.3424 111.131 86.5282C111.758 87.0067 112.486 87.3363 113.261 87.4919C114.035 87.6475 114.835 87.6249 115.599 87.4259C116.363 87.2269 117.072 86.8567 117.671 86.3436C118.27 85.8305 118.743 85.188 119.054 84.465C121.611 84.4236 123.67 82.5835 123.67 80.311C123.67 78.0125 121.565 76.1493 118.969 76.1493ZM25.5877 74.002C25.5822 74.0271 25.5784 74.0528 25.5732 74.0781C25.5351 74.0767 25.499 74.0684 25.4604 74.0684C25.3043 74.0724 25.1487 74.088 24.9949 74.1152C25.0034 74.0965 25.0153 74.0797 25.0235 74.0608C25.2125 74.0515 25.4009 74.0318 25.5877 74.002ZM69.2378 72.2709C69.2226 72.2103 69.1965 72.1546 69.1778 72.0955C69.9756 71.5447 70.6043 70.7844 70.9942 69.8991C71.6812 69.8955 72.3598 69.7477 72.9857 69.4655C73.6115 69.1833 74.1707 68.7729 74.6267 68.2612C74.5866 68.4604 74.5661 68.6631 74.5654 68.8663C74.5698 69.1838 74.6233 69.4987 74.7241 69.8C73.827 70.4227 73.1479 71.3093 72.7819 72.3354C71.6458 71.895 70.3893 71.8721 69.2378 72.2709V72.2709ZM100.53 72.6588C100.528 72.5951 100.535 72.5293 100.531 72.466C100.664 72.4655 100.797 72.4565 100.929 72.4391C101.132 73.1123 101.471 73.737 101.925 74.2751C101.826 74.3027 101.722 74.3193 101.626 74.3517C101.458 73.6827 101.072 73.0877 100.53 72.6588Z" fill="#F9A825"/>
<path d="M10.91 82.3918C9.42802 82.3917 7.96157 82.6923 6.60012 83.2752C5.23867 83.8582 4.01077 84.7112 2.99136 85.7824C1.97195 86.8535 1.1824 88.1203 0.670883 89.5054C0.159372 90.8905 -0.0633738 92.3648 0.0162426 93.8385L7.091 190.718C7.24018 193.494 8.45299 196.108 10.4796 198.021C12.5063 199.934 15.1924 201 17.9847 201H109.206C111.998 201 114.684 199.934 116.711 198.021C118.737 196.108 119.95 193.494 120.099 190.718L127.174 93.8385C127.254 92.3648 127.031 90.8905 126.52 89.5054C126.008 88.1203 125.218 86.8535 124.199 85.7824C123.18 84.7112 121.952 83.8582 120.59 83.2752C119.229 82.6923 117.762 82.3917 116.28 82.3918H10.91Z" fill="#3F3D56"/>
<path d="M22.3263 82.3918H16.0576V201H22.3263V82.3918Z" fill="#5260A6"/>
<path d="M40.0876 82.3918H33.8188V201H40.0876V82.3918Z" fill="#5260A6"/>
<path d="M57.8488 82.3918H51.5801V201H57.8488V82.3918Z" fill="#5260A6"/>
<path d="M75.61 82.3918H69.3413V201H75.61V82.3918Z" fill="#5260A6"/>
<path d="M93.3717 82.3918H87.103V201H93.3717V82.3918Z" fill="#5260A6"/>
<path d="M111.133 82.3918H104.864V201H111.133V82.3918Z" fill="#5260A6"/>
<path d="M213.406 33.7668L210.673 27.1386L174.236 42.035C173.411 42.3728 172.706 42.9471 172.209 43.6849C171.713 44.4228 171.447 45.2909 171.447 46.1792V85.3818H178.644V47.988L213.406 33.7668Z" fill="#3F3D56"/>
<path d="M208.723 19.9356H200.876V44.6839H208.723V19.9356Z" fill="#5260A6"/>
<path d="M196.299 25.1449H188.453V49.8932H196.299V25.1449Z" fill="#5260A6"/>
<path d="M184.198 46.312L178.64 47.9399L176.352 21.5637H184.198V46.312Z" fill="#5260A6"/>
<path d="M188.775 49.2421H163.923V57.0561H188.775V49.2421Z" fill="#5260A6"/>
<path d="M188.779 59.9904H163.927V67.8043H188.779V59.9904Z" fill="#5260A6"/>
<path d="M188.775 70.7386H163.923V78.5527H188.775V70.7386Z" fill="#5260A6"/>
<path d="M200.876 201H152.807L141.033 83.7621H211.343L200.876 201Z" fill="#3F3D56"/>
<path d="M216.574 81.8085H136.129V89.6225H216.574V81.8085Z" fill="#3F3D56"/>
<path d="M293.668 166.734C293.353 166.734 293.05 166.859 292.828 167.081C292.605 167.303 292.479 167.604 292.479 167.918V199.817C292.479 200.13 292.605 200.431 292.828 200.653C293.05 200.875 293.353 201 293.668 201H348.811C349.126 201 349.428 200.875 349.651 200.653C349.874 200.431 349.999 200.13 350 199.817V167.918C349.999 167.604 349.874 167.303 349.651 167.081C349.428 166.859 349.126 166.734 348.811 166.734H293.668Z" fill="#3F3D56"/>
<path d="M299.83 169.547C299.243 169.548 298.68 169.781 298.264 170.194C297.849 170.608 297.615 171.168 297.615 171.753V195.981C297.615 196.566 297.849 197.127 298.264 197.54C298.68 197.954 299.243 198.186 299.83 198.187H342.648C343.236 198.186 343.799 197.954 344.214 197.54C344.629 197.127 344.863 196.566 344.863 195.981V171.753C344.863 171.168 344.629 170.608 344.214 170.194C343.799 169.781 343.236 169.548 342.648 169.547L299.83 169.547Z" fill="#FF6584"/>
<path d="M294.288 177.242H265.564V183.867H294.288V177.242Z" fill="#3F3D56"/>
<path d="M215.582 166.734C215.267 166.735 214.965 166.86 214.742 167.081C214.519 167.303 214.394 167.604 214.394 167.918V199.817C214.394 200.13 214.519 200.431 214.742 200.653C214.965 200.875 215.267 200.999 215.582 201H270.726C271.041 200.999 271.343 200.875 271.565 200.653C271.788 200.431 271.913 200.13 271.914 199.817V167.918C271.913 167.604 271.788 167.303 271.565 167.081C271.343 166.86 271.041 166.735 270.726 166.734H215.582Z" fill="#3F3D56"/>
<path d="M221.745 169.547C221.158 169.548 220.594 169.78 220.179 170.194C219.763 170.607 219.53 171.168 219.529 171.753V195.981C219.53 196.566 219.763 197.127 220.179 197.54C220.594 197.954 221.158 198.186 221.745 198.187H264.562C265.15 198.186 265.713 197.954 266.128 197.54C266.544 197.127 266.778 196.566 266.778 195.981V171.753C266.778 171.168 266.544 170.607 266.128 170.194C265.713 169.78 265.15 169.548 264.562 169.547L221.745 169.547Z" fill="#5260A6"/>
</g>
<defs>
<clipPath id="clip0_16:21">
<rect width="350" height="201" fill="white"/>
</clipPath>
</defs>
</svg>
